<svg width="171" height="42" viewBox="0 0 171 42" fill="none" xmlns="http://www.w3.org/2000/svg">
<path d="M48.3293 25.6H49.1693V34H48.3293V30.076H43.7693V34H42.9293V25.6H43.7693V29.284H48.3293V25.6ZM56.1255 28H56.9175V34H56.1255V32.824C55.5735 33.704 54.7655 34.144 53.7015 34.144C52.8455 34.144 52.1135 33.84 51.5055 33.232C50.9055 32.624 50.6055 31.88 50.6055 31C50.6055 30.12 50.9055 29.376 51.5055 28.768C52.1135 28.16 52.8455 27.856 53.7015 27.856C54.7655 27.856 55.5735 28.296 56.1255 29.176V28ZM52.0815 32.692C52.5375 33.148 53.0975 33.376 53.7615 33.376C54.4255 33.376 54.9855 33.148 55.4415 32.692C55.8975 32.228 56.1255 31.664 56.1255 31C56.1255 30.336 55.8975 29.776 55.4415 29.32C54.9855 28.856 54.4255 28.624 53.7615 28.624C53.0975 28.624 52.5375 28.856 52.0815 29.32C51.6255 29.776 51.3975 30.336 51.3975 31C51.3975 31.664 51.6255 32.228 52.0815 32.692ZM63.4424 34H62.3864L59.3864 31.108V34H58.5944V28H59.3864V30.652L62.2424 28H63.3224L60.2264 30.88L63.4424 34ZM69.4441 28V34H68.6521V28.768H65.9401V31.444C65.9401 32.444 65.7481 33.132 65.3641 33.508C64.9881 33.884 64.4681 34.048 63.8041 34V33.256C64.2601 33.304 64.5961 33.196 64.8121 32.932C65.0361 32.668 65.1481 32.172 65.1481 31.444V28H69.4441ZM75.4898 28H76.1618V34H75.3698V29.38L71.7938 34H71.1218V28H71.9138V32.62L75.4898 28ZM81.7246 28H82.5166V34H81.7246V31.72C81.2606 31.96 80.6886 32.08 80.0086 32.08C79.2246 32.08 78.6246 31.9 78.2086 31.54C77.8006 31.172 77.5966 30.632 77.5966 29.92V28H78.3886V29.92C78.3886 30.424 78.5206 30.788 78.7846 31.012C79.0486 31.228 79.4486 31.336 79.9846 31.336C80.6086 31.336 81.1886 31.22 81.7246 30.988V28ZM89.9959 34.144C89.0919 34.144 88.3399 33.844 87.7399 33.244C87.1399 32.636 86.8399 31.888 86.8399 31C86.8399 30.112 87.1399 29.368 87.7399 28.768C88.3399 28.16 89.0919 27.856 89.9959 27.856C90.5879 27.856 91.1199 28 91.5919 28.288C92.0639 28.568 92.4079 28.948 92.6239 29.428L91.9759 29.8C91.8159 29.44 91.5559 29.156 91.1959 28.948C90.8439 28.732 90.4439 28.624 89.9959 28.624C89.3319 28.624 88.7719 28.856 88.3159 29.32C87.8599 29.776 87.6319 30.336 87.6319 31C87.6319 31.664 87.8599 32.228 88.3159 32.692C88.7719 33.148 89.3319 33.376 89.9959 33.376C90.4439 33.376 90.8439 33.272 91.1959 33.064C91.5479 32.848 91.8239 32.56 92.0239 32.2L92.6839 32.584C92.4359 33.064 92.0719 33.444 91.5919 33.724C91.1119 34.004 90.5799 34.144 89.9959 34.144ZM98.7904 33.244C98.1824 33.844 97.4384 34.144 96.5584 34.144C95.6784 34.144 94.9304 33.844 94.3144 33.244C93.7064 32.636 93.4024 31.888 93.4024 31C93.4024 30.112 93.7064 29.368 94.3144 28.768C94.9304 28.16 95.6784 27.856 96.5584 27.856C97.4384 27.856 98.1824 28.16 98.7904 28.768C99.4064 29.368 99.7144 30.112 99.7144 31C99.7144 31.888 99.4064 32.636 98.7904 33.244ZM94.8784 32.692C95.3344 33.148 95.8944 33.376 96.5584 33.376C97.2224 33.376 97.7824 33.148 98.2384 32.692C98.6944 32.228 98.9224 31.664 98.9224 31C98.9224 30.336 98.6944 29.776 98.2384 29.32C97.7824 28.856 97.2224 28.624 96.5584 28.624C95.8944 28.624 95.3344 28.856 94.8784 29.32C94.4224 29.776 94.1944 30.336 94.1944 31C94.1944 31.664 94.4224 32.228 94.8784 32.692ZM103.704 34.144C102.84 34.144 102.12 33.86 101.544 33.292C100.968 32.716 100.68 31.972 100.68 31.06C100.68 30.036 100.832 29.252 101.136 28.708C101.44 28.156 102.056 27.656 102.984 27.208C103.16 27.12 103.392 27.016 103.68 26.896C103.976 26.776 104.196 26.68 104.34 26.608C104.492 26.536 104.656 26.444 104.832 26.332C105.008 26.212 105.14 26.08 105.228 25.936C105.316 25.792 105.372 25.62 105.396 25.42L106.02 25.78C105.988 25.972 105.924 26.152 105.828 26.32C105.732 26.488 105.632 26.624 105.528 26.728C105.432 26.832 105.276 26.948 105.06 27.076C104.852 27.196 104.688 27.284 104.568 27.34C104.456 27.388 104.256 27.472 103.968 27.592C103.688 27.712 103.5 27.792 103.404 27.832C102.844 28.072 102.432 28.324 102.168 28.588C101.904 28.844 101.716 29.18 101.604 29.596C101.876 29.236 102.22 28.972 102.636 28.804C103.06 28.628 103.472 28.54 103.872 28.54C104.672 28.54 105.332 28.804 105.852 29.332C106.38 29.852 106.644 30.52 106.644 31.336C106.644 32.144 106.364 32.816 105.804 33.352C105.252 33.88 104.552 34.144 103.704 34.144ZM103.704 33.352C104.328 33.352 104.84 33.164 105.24 32.788C105.648 32.404 105.852 31.92 105.852 31.336C105.852 30.744 105.66 30.26 105.276 29.884C104.9 29.5 104.396 29.308 103.764 29.308C103.196 29.308 102.68 29.488 102.216 29.848C101.752 30.2 101.52 30.672 101.52 31.264C101.52 31.872 101.728 32.372 102.144 32.764C102.568 33.156 103.088 33.352 103.704 33.352ZM108.652 26.56C108.54 26.672 108.404 26.728 108.244 26.728C108.084 26.728 107.948 26.672 107.836 26.56C107.724 26.448 107.668 26.312 107.668 26.152C107.668 25.992 107.724 25.856 107.836 25.744C107.948 25.632 108.084 25.576 108.244 25.576C108.404 25.576 108.54 25.632 108.652 25.744C108.764 25.856 108.82 25.992 108.82 26.152C108.82 26.312 108.764 26.448 108.652 26.56ZM107.848 34V28H108.64V34H107.848ZM117.161 28V28.768L114.113 28.768V34H113.321V28H117.161ZM121.342 27.856C122.198 27.856 122.926 28.16 123.526 28.768C124.134 29.376 124.438 30.12 124.438 31C124.438 31.88 124.134 32.624 123.526 33.232C122.926 33.84 122.198 34.144 121.342 34.144C120.278 34.144 119.47 33.704 118.918 32.824V36.4H118.126V28H118.918V29.176C119.47 28.296 120.278 27.856 121.342 27.856ZM119.602 32.692C120.058 33.148 120.618 33.376 121.282 33.376C121.946 33.376 122.506 33.148 122.962 32.692C123.418 32.228 123.646 31.664 123.646 31C123.646 30.336 123.418 29.776 122.962 29.32C122.506 28.856 121.946 28.624 121.282 28.624C120.618 28.624 120.058 28.856 119.602 29.32C119.146 29.776 118.918 30.336 118.918 31C118.918 31.664 119.146 32.228 119.602 32.692ZM130.783 33.244C130.175 33.844 129.431 34.144 128.551 34.144C127.671 34.144 126.923 33.844 126.307 33.244C125.699 32.636 125.395 31.888 125.395 31C125.395 30.112 125.699 29.368 126.307 28.768C126.923 28.16 127.671 27.856 128.551 27.856C129.431 27.856 130.175 28.16 130.783 28.768C131.399 29.368 131.707 30.112 131.707 31C131.707 31.888 131.399 32.636 130.783 33.244ZM126.871 32.692C127.327 33.148 127.887 33.376 128.551 33.376C129.215 33.376 129.775 33.148 130.231 32.692C130.687 32.228 130.915 31.664 130.915 31C130.915 30.336 130.687 29.776 130.231 29.32C129.775 28.856 129.215 28.624 128.551 28.624C127.887 28.624 127.327 28.856 126.871 29.32C126.415 29.776 126.187 30.336 126.187 31C126.187 31.664 126.415 32.228 126.871 32.692ZM140.28 28H141.072V34H133.032V28H133.824V33.232H136.656V28H137.448V33.232H140.28V28ZM145.519 27.856C146.407 27.856 147.123 28.172 147.667 28.804C148.219 29.428 148.495 30.168 148.495 31.024C148.495 31.112 148.487 31.236 148.471 31.396L143.203 31.396C143.283 32.004 143.539 32.488 143.971 32.848C144.411 33.2 144.951 33.376 145.591 33.376C146.047 33.376 146.439 33.284 146.767 33.1C147.103 32.908 147.355 32.66 147.523 32.356L148.219 32.764C147.955 33.188 147.595 33.524 147.139 33.772C146.683 34.02 146.163 34.144 145.579 34.144C144.635 34.144 143.867 33.848 143.275 33.256C142.683 32.664 142.387 31.912 142.387 31C142.387 30.104 142.679 29.356 143.263 28.756C143.847 28.156 144.599 27.856 145.519 27.856ZM145.519 28.624C144.895 28.624 144.371 28.812 143.947 29.188C143.531 29.556 143.283 30.036 143.203 30.628L147.679 30.628C147.599 29.996 147.355 29.504 146.947 29.152C146.539 28.8 146.063 28.624 145.519 28.624ZM150.715 27.04V26.344H153.835V27.04H150.715ZM154.123 28H154.795V34H154.003V29.38L150.427 34H149.755V28H150.547V32.62L154.123 28Z" fill="#4F4F4F" fill-opacity="0.7"/>
<path d="M34.9744 24.6605C34.9744 34.2369 27.1451 42 17.4872 42C7.82929 42 0 34.2369 0 24.6605C0 15.0842 7.82929 0 17.4872 0C27.1451 0 34.9744 15.0842 34.9744 24.6605Z" fill="#EE5E40"/>
<path d="M25.981 25.5C25.981 30.1944 22.1782 34 17.4872 34C12.7962 34 8.99342 30.1944 8.99342 25.5C8.99342 20.8056 12.7962 17 17.4872 17C22.1782 17 25.981 20.8056 25.981 25.5Z" fill="white"/>
<path d="M120.531 13.1734V14.7341C120.688 14.5029 120.883 14.2769 121.114 14.0562C121.356 13.825 121.75 13.5885 122.297 13.3468C122.843 13.1051 123.437 12.9842 124.078 12.9842H124.267C124.94 12.9842 125.518 13.0946 126.001 13.3153C126.485 13.5255 126.853 13.8197 127.105 14.1981C127.357 14.566 127.541 14.9601 127.657 15.3805C127.772 15.7904 127.83 16.2423 127.83 16.7363V17.5876H123.668V17.2881C123.668 16.7731 123.542 16.3579 123.29 16.0426C123.048 15.7168 122.664 15.5539 122.139 15.5539C121.645 15.5539 121.256 15.7221 120.972 16.0584C120.699 16.3947 120.562 16.8361 120.562 17.3826V21.655H116.274V13.1734H120.531Z" fill="#333333"/>
<path d="M135.098 15.0179C133.701 15.0179 132.886 15.4435 132.655 16.2949H137.542C137.363 15.4435 136.549 15.0179 135.098 15.0179ZM141.798 18.565V18.5966C141.798 18.8803 141.762 19.1483 141.688 19.4006C141.615 19.6528 141.446 19.9418 141.184 20.2676C140.921 20.5829 140.574 20.8562 140.143 21.0874C139.712 21.3081 139.097 21.4973 138.299 21.655C137.51 21.8126 136.591 21.8914 135.54 21.8914H134.704C133.706 21.8914 132.823 21.8021 132.056 21.6234C131.288 21.4448 130.679 21.2135 130.227 20.9298C129.775 20.646 129.407 20.3097 129.123 19.9208C128.84 19.5214 128.645 19.1326 128.54 18.7542C128.446 18.3653 128.398 17.9554 128.398 17.5245V17.2092C128.398 14.361 130.484 12.9369 134.657 12.9369H135.524C136.291 12.9369 136.985 12.9895 137.605 13.0946C138.236 13.1891 138.766 13.3205 139.197 13.4887C139.628 13.6568 140.001 13.867 140.317 14.1193C140.642 14.3715 140.9 14.629 141.089 14.8918C141.278 15.144 141.431 15.433 141.546 15.7588C141.662 16.0741 141.735 16.3737 141.767 16.6575C141.809 16.9307 141.83 17.2302 141.83 17.5561V18.029H132.607C132.755 19.0695 133.611 19.5897 135.177 19.5897H135.193C135.571 19.5897 135.908 19.5582 136.202 19.4952C136.507 19.4321 136.738 19.3638 136.896 19.2902C137.064 19.2061 137.2 19.1115 137.305 19.0064C137.411 18.9013 137.479 18.8173 137.51 18.7542C137.542 18.6806 137.563 18.6176 137.573 18.565H141.798Z" fill="#333333"/>
<path d="M151.868 17.4142V17.3353C151.868 16.8204 151.631 16.3684 151.158 15.9796C150.696 15.5802 150.044 15.3805 149.203 15.3805H149.124C148.273 15.3805 147.664 15.5697 147.296 15.948C146.928 16.3159 146.744 16.7783 146.744 17.3353V17.4142C146.744 17.9502 146.938 18.4179 147.327 18.8173C147.727 19.2166 148.331 19.4163 149.14 19.4163H149.203C150.055 19.4163 150.711 19.2166 151.174 18.8173C151.636 18.4074 151.868 17.9397 151.868 17.4142ZM151.868 9.92578H156.156V21.655H151.883V20.4253C151.778 20.5409 151.642 20.6618 151.473 20.7879C151.316 20.9035 151.074 21.0506 150.748 21.2293C150.433 21.3975 150.018 21.5394 149.503 21.655C148.988 21.7601 148.42 21.8126 147.8 21.8126H147.532C145.798 21.8126 144.505 21.408 143.654 20.5987C142.813 19.7894 142.393 18.7647 142.393 17.5245V17.1935C142.393 16.6259 142.482 16.1057 142.661 15.6327C142.85 15.1493 143.134 14.7078 143.512 14.3085C143.89 13.9091 144.411 13.5938 145.073 13.3626C145.735 13.1313 146.513 13.0157 147.406 13.0157H147.706C149.398 13.0157 150.785 13.4256 151.868 14.2454V9.92578Z" fill="#333333"/>
<path d="M161.699 9.92578V12.464H157.411V9.92578H161.699ZM161.699 13.1734V21.655H157.411V13.1734H161.699Z" fill="#333333"/>
<path d="M170.032 21.655H166.406C164.903 21.655 164.152 20.851 164.152 19.2429V15.7746H162.528V13.1734H164.152V10.6983H168.408V13.1734H170.032V15.7746H168.408V18.2813C168.408 18.5545 168.45 18.7489 168.534 18.8646C168.629 18.9697 168.823 19.0222 169.118 19.0222H170.032V21.655Z" fill="#333333"/>
<path d="M106.724 21.8757H106.109C104.732 21.8757 103.523 21.7391 102.483 21.4658C101.453 21.1925 100.649 20.8562 100.071 20.4568C99.4927 20.0469 99.025 19.5635 98.6677 19.0064C98.3103 18.4494 98.0791 17.9344 97.974 17.4615C97.8689 16.9885 97.8164 16.4946 97.8164 15.9796V15.5224C97.8164 14.9969 97.8637 14.5029 97.9583 14.0405C98.0634 13.578 98.2893 13.0735 98.6362 12.527C98.983 11.97 99.4402 11.497 100.008 11.1082C100.586 10.7088 101.395 10.3777 102.436 10.115C103.487 9.84171 104.711 9.70508 106.109 9.70508H106.724C107.701 9.70508 108.594 9.76814 109.404 9.89426C110.223 10.0204 110.907 10.1833 111.453 10.383C112.01 10.5827 112.499 10.8244 112.919 11.1082C113.35 11.3814 113.687 11.6599 113.928 11.9437C114.17 12.2275 114.364 12.5323 114.512 12.8581C114.669 13.1734 114.769 13.4572 114.811 13.7094C114.864 13.9616 114.89 14.2086 114.89 14.4504V14.6553H110.239C109.882 13.4572 108.594 12.8581 106.377 12.8581C103.76 12.8581 102.451 13.7725 102.451 15.6012V15.7904C102.451 16.1372 102.509 16.4683 102.625 16.7836C102.751 17.0989 102.951 17.4089 103.224 17.7137C103.508 18.0185 103.917 18.2602 104.453 18.4389C105 18.6176 105.646 18.7069 106.393 18.7069C107.044 18.7069 107.617 18.6491 108.111 18.5335C108.605 18.4074 108.978 18.2707 109.23 18.1236C109.482 17.9765 109.693 17.7925 109.861 17.5718C110.029 17.3511 110.129 17.1935 110.16 17.0989C110.192 17.0043 110.223 16.8992 110.255 16.7836H114.89V17.0358C114.89 17.3932 114.837 17.761 114.732 18.1394C114.627 18.5072 114.396 18.9276 114.039 19.4006C113.681 19.863 113.219 20.2729 112.651 20.6302C112.094 20.9771 111.301 21.2714 110.271 21.5131C109.251 21.7548 108.069 21.8757 106.724 21.8757Z" fill="#333333"/>
<path d="M50.9394 21.8757H50.3246C48.9478 21.8757 47.7391 21.7391 46.6986 21.4658C45.6687 21.1925 44.8646 20.8562 44.2866 20.4568C43.7085 20.0469 43.2408 19.5635 42.8835 19.0064C42.5262 18.4494 42.2949 17.9344 42.1898 17.4615C42.0847 16.9885 42.0322 16.4946 42.0322 15.9796V15.5224C42.0322 14.9969 42.0795 14.5029 42.1741 14.0405C42.2792 13.578 42.5051 13.0735 42.852 12.527C43.1988 11.97 43.656 11.497 44.2235 11.1082C44.8016 10.7088 45.6109 10.3777 46.6513 10.115C47.7023 9.84171 48.9268 9.70508 50.3246 9.70508H50.9394C51.9169 9.70508 52.8102 9.76814 53.6195 9.89426C54.4393 10.0204 55.1224 10.1833 55.6689 10.383C56.226 10.5827 56.7147 10.8244 57.1351 11.1082C57.566 11.3814 57.9023 11.6599 58.1441 11.9437C58.3858 12.2275 58.5802 12.5323 58.7274 12.8581C58.885 13.1734 58.9849 13.4572 59.0269 13.7094C59.0794 13.9616 59.1057 14.2086 59.1057 14.4504V14.6553H54.455C54.0977 13.4572 52.8102 12.8581 50.5926 12.8581C47.9756 12.8581 46.6671 13.7725 46.6671 15.6012V15.7904C46.6671 16.1372 46.7249 16.4683 46.8405 16.7836C46.9666 17.0989 47.1663 17.4089 47.4396 17.7137C47.7234 18.0185 48.1333 18.2602 48.6693 18.4389C49.2158 18.6176 49.8622 18.7069 50.6084 18.7069C51.26 18.7069 51.8328 18.6491 52.3268 18.5335C52.8207 18.4074 53.1938 18.2707 53.4461 18.1236C53.6983 17.9765 53.9085 17.7925 54.0767 17.5718C54.2448 17.3511 54.3447 17.1935 54.3762 17.0989C54.4077 17.0043 54.4393 16.8992 54.4708 16.7836H59.1057V17.0358C59.1057 17.3932 59.0532 17.761 58.9481 18.1394C58.843 18.5072 58.6118 18.9276 58.2544 19.4006C57.8971 19.863 57.4346 20.2729 56.8671 20.6302C56.3101 20.9771 55.5166 21.2714 54.4866 21.5131C53.4671 21.7548 52.2847 21.8757 50.9394 21.8757Z" fill="#333333"/>
<path d="M64.5364 9.92578V21.655H60.2483V9.92578H64.5364Z" fill="#333333"/>
<path d="M70.0788 9.92578V12.464H65.7907V9.92578H70.0788ZM70.0788 13.1734V21.655H65.7907V13.1734H70.0788Z" fill="#333333"/>
<path d="M78.1909 21.8914H77.245C76.2045 21.8914 75.2901 21.7969 74.5018 21.6077C73.7241 21.408 73.1198 21.161 72.6889 20.8667C72.258 20.5724 71.9059 20.2204 71.6326 19.8105C71.3699 19.3901 71.1964 19.0064 71.1124 18.6596C71.0388 18.3023 71.002 17.9187 71.002 17.5088V17.225C71.002 14.3663 73.0777 12.9369 77.2292 12.9369H78.2066C79.2787 12.9369 80.214 13.0367 81.0128 13.2364C81.8221 13.4256 82.4369 13.6568 82.8573 13.9301C83.2777 14.1929 83.614 14.5134 83.8663 14.8918C84.129 15.2701 84.2919 15.5959 84.355 15.8692C84.4181 16.1425 84.4496 16.4262 84.4496 16.7205V16.7678H80.0669C80.0459 16.6417 80.0038 16.5156 79.9408 16.3894C79.8882 16.2633 79.7884 16.1109 79.6413 15.9323C79.4941 15.7431 79.2524 15.5907 78.9161 15.4751C78.5902 15.3595 78.1909 15.3017 77.7179 15.3017H77.6549C76.8141 15.3017 76.2202 15.4908 75.8734 15.8692C75.5266 16.2371 75.3532 16.7047 75.3532 17.2723V17.3511C75.3532 17.9502 75.5318 18.4599 75.8892 18.8803C76.2465 19.2902 76.8351 19.4952 77.6549 19.4952H77.7179C78.1804 19.4952 78.5745 19.4374 78.9003 19.3217C79.2366 19.1956 79.4783 19.038 79.6255 18.8488C79.7831 18.6491 79.8882 18.4862 79.9408 18.3601C80.0038 18.2234 80.0459 18.0921 80.0669 17.966H84.4496V17.9975C84.4496 18.1972 84.4338 18.3916 84.4023 18.5808C84.3813 18.77 84.3182 19.0012 84.2131 19.2744C84.1185 19.5372 83.9871 19.7842 83.819 20.0154C83.6508 20.2466 83.4038 20.4831 83.078 20.7248C82.7627 20.9561 82.3896 21.1557 81.9587 21.3239C81.5383 21.4921 81.0023 21.6287 80.3507 21.7338C79.7096 21.8389 78.9896 21.8914 78.1909 21.8914Z" fill="#333333"/>
<path d="M89.6003 21.655H85.3122V9.92578H89.6003V16.484L92.5011 13.1734H97.1202L93.6677 16.9255L97.6247 21.655H92.7533L89.6003 17.8398V21.655Z" fill="#333333"/>
</svg>
