<svg width="154" height="24" viewBox="0 0 154 24" fill="none" xmlns="http://www.w3.org/2000/svg">
<path d="M28.0224 1.92322H4.03713C1.80755 1.92322 0.00012207 3.73065 0.00012207 5.96023V18.0713C0.00012207 20.3008 1.80755 22.1083 4.03713 22.1083H28.0224C30.252 22.1083 32.0594 20.3008 32.0594 18.0713V5.96023C32.0594 3.73065 30.252 1.92322 28.0224 1.92322Z" fill="url(#paint0_linear_56_2596)"/>
<path fill-rule="evenodd" clip-rule="evenodd" d="M120.417 12.0273C120.417 8.06536 116.484 4.90332 110.888 4.90332C105.292 4.90332 101.359 8.02493 101.359 12.0388C101.359 16.0528 105.309 19.1599 110.888 19.1599C116.467 19.1599 120.417 15.9892 120.417 12.0273ZM117.322 12.0273C117.322 10.3466 115.508 7.54269 110.891 7.54269C106.273 7.54269 104.454 10.3149 104.454 12.0388C104.454 13.7628 106.262 16.5263 110.891 16.5263C115.52 16.5263 117.322 13.7079 117.322 12.0273ZM90.5788 4.9091C88.4419 4.9091 85.8083 5.73498 84.041 7.55135V5.39423H80.9512V23.3875H84.041V16.6794L84.0208 16.5061C85.5022 18.2214 88.2224 19.1657 90.5788 19.1657C96.1578 19.1657 99.8194 15.9892 99.8194 12.0331C99.8194 8.07691 96.1723 4.9091 90.5788 4.9091ZM90.29 16.5061C85.687 16.5061 83.862 13.7657 83.862 12.0446C83.862 10.3235 85.6552 7.55135 90.2987 7.55135C94.9421 7.55135 96.7296 10.3264 96.7296 12.0157C96.7296 13.705 94.8843 16.5061 90.2813 16.5061H90.29ZM144.357 12.9716C143.779 14.7706 141.859 16.5177 139.82 16.5177C137.51 16.5177 136.326 15.2788 136.326 12.833V5.39423H133.262L133.288 12.8763C132.453 14.8255 130.741 16.5263 128.699 16.5263C126.389 16.5263 125.202 15.2875 125.202 12.8416V5.39423H122.159V12.9947C122.159 16.896 124.241 19.1339 127.873 19.1339C130.472 19.1339 132.682 17.872 133.753 15.8102C134.359 17.4071 135.774 19.1339 138.994 19.1339C141.255 19.1339 143.219 18.1839 144.357 16.561V18.6604H147.438V5.39423H144.348L144.357 12.9716ZM150.181 5.39423H153.248V18.6777H150.181V5.39423ZM151.683 0C150.38 0 149.436 0.828771 149.436 1.96942C149.436 3.11006 150.424 3.94172 151.683 3.94172C152.942 3.94172 153.903 3.09273 153.903 1.96942C153.903 0.846098 152.976 0 151.683 0ZM71.5603 13.165C74.1015 12.9947 78.7507 12.1255 78.7507 8.88258C78.7507 6.09595 75.9381 4.44418 71.8202 4.44418C67.5176 4.44418 63.7347 5.98333 59.2732 10.7365C55.0282 15.2615 52.8451 16.5494 49.455 16.5494C45.2764 16.5494 43.6247 14.7446 43.0298 13.2834H52.3225V10.7509H43.0818C43.8095 9.23488 45.4815 7.57445 49.8939 7.57445C54.3958 7.57445 56.0938 10.0434 56.0938 10.0434V6.57819C54.1833 5.55356 52.0608 4.9871 49.8939 4.92354C44.0463 4.92354 39.9082 7.81124 39.9082 12.085C39.9082 16.3589 44.2542 19.1628 49.4694 19.1628C54.1735 19.1628 57.0814 16.8526 61.1762 12.5211C65.1092 8.37723 68.0316 6.92761 71.8087 6.92761C74.1189 6.92761 75.811 7.45894 75.811 8.69488C75.811 9.93082 73.6222 10.4044 71.055 10.5777C66.1112 10.9126 63.6682 12.3103 63.6682 14.7331C63.6682 17.4446 66.5126 19.1657 70.8153 19.1657C74.0178 19.1657 77.0008 18.2994 78.7421 16.9537V13.887C76.5997 15.7228 73.8554 16.7037 71.0348 16.6418C69.0134 16.6418 66.7552 16.2578 66.7552 14.9699C66.7754 13.7513 68.3752 13.3874 71.5603 13.165Z" fill="black"/>
<defs>
<linearGradient id="paint0_linear_56_2596" x1="4.14975" y1="23.8958" x2="27.9098" y2="0.135733" gradientUnits="userSpaceOnUse">
<stop stop-color="#97CA3E"/>
<stop offset="1" stop-color="#FFFF22"/>
</linearGradient>
</defs>
</svg>
