<svg width="138" height="77" fill="none" xmlns="http://www.w3.org/2000/svg">
  <path d="m24.3 63.3 5.8-15.6L2.5 28.4H36l8-26.5 8 26.5h41.2" stroke="#EF7A0E" stroke-width="3" stroke-linecap="round" stroke-linejoin="round"/>
  <path d="M49.9 69h4.7c-.2 1.9-1 3.3-2.4 4.4a8 8 0 0 1-5.2 1.7c-2.7 0-4.8-.8-6.4-2.4a8.7 8.7 0 0 1-2.3-6.3c0-2.6.8-4.7 2.3-6.3a8.5 8.5 0 0 1 6.4-2.4c2 0 3.7.6 5 1.6 1.3 1 2.1 2.3 2.4 4h-4.7c-.3-1.2-1.2-1.7-2.7-1.7-1.3 0-2.3.4-3 1.3-.6.9-1 2-1 3.5s.4 2.6 1 3.5c.7.9 1.7 1.3 3 1.3.8 0 1.4-.2 2-.5.4-.4.7-1 .9-1.6Zm7.8-11h8.6c2 0 3.7.5 4.8 1.5 1.1 1 1.7 2.3 1.7 4a5 5 0 0 1-2.6 4.6l2.6 6.7h-4.6L66 68.9h-3.7v5.9h-4.6V58Zm4.6 7.3h3.4c1.6 0 2.4-.6 2.4-1.7 0-1.2-.8-1.8-2.4-1.8h-3.4v3.5Zm25.1 2.8h-6.8V71h9.2v3.9H76V58h13.5v3.8h-9v2.5h7V68ZM92.7 58h7.9c2.6 0 4.7.8 6 2.3a8.6 8.6 0 0 1 2.2 6.1c0 2.6-.7 4.6-2.1 6.1a8 8 0 0 1-6.1 2.3h-8V58Zm4.6 13h2.5c1.5 0 2.6-.5 3.2-1.3.7-.8 1-2 1-3.3a5 5 0 0 0-1-3.3c-.6-.8-1.7-1.2-3.2-1.2h-2.5v9Zm19.3-13v16.8H112V58h4.6Zm17.6 0v4h-5.3v12.9h-4.7v-13H119v-3.7h15.2Z" fill="#fff"/>
  <path d="M50.6 39H43v3.3h6v2.2h-6v5.4h-2.9V36.8h10.4V39Zm5.4-2.2v13h-3v-13h3Zm9.6 0c1.6 0 2.8.3 3.7 1 .9.8 1.3 1.7 1.3 3 0 1.2-.4 2.2-1.3 2.9a6 6 0 0 1-3.7 1l-.2.1h-3v5h-2.9v-13h6.1Zm-.3 6a3 3 0 0 0 1.8-.5c.4-.3.6-.8.6-1.4 0-.7-.2-1.2-.6-1.5-.4-.3-1-.4-1.8-.4h-3v3.8h3Zm1.7.5 4.5 6.6h-3.3L64.5 44l2.5-.8Zm11.8-6.7c1.3 0 2.4.2 3.3.6 1 .4 1.8 1 2.4 1.8L83 40.8a5.2 5.2 0 0 0-4.2-2c-.6 0-1 0-1.5.2-.3.1-.6.3-.8.6-.2.2-.3.5-.3.8 0 .3.2.6.5.9l1.5.6 2.6.5a6 6 0 0 1 2.9 1.3c.6.6.9 1.3.9 2.2 0 1-.3 1.6-.7 2.3a6 6 0 0 1-2 1.4 9 9 0 0 1-3 .4c-.9 0-1.8 0-2.6-.3-.8-.2-1.5-.5-2.1-.9-.7-.4-1.2-.8-1.6-1.3l1.6-1.8c.4.4.7.8 1.2 1a6.2 6.2 0 0 0 5 1c.4-.2.7-.3.9-.6.2-.2.3-.5.3-.8 0-.4-.1-.6-.4-.9-.2-.2-.6-.4-1.3-.6l-2.8-.6c-.8-.1-1.5-.4-2-.7-.7-.3-1.1-.7-1.4-1.1-.3-.5-.5-1-.5-1.7 0-.8.3-1.5.7-2.1.5-.6 1.1-1.1 2-1.5.8-.3 1.8-.5 3-.5Zm19 .2V39H93v10.9h-2.9v-11h-4.6v-2.1h12.2Z" fill="#EF7A0E"/>
</svg>
